<svg xmlns="http://www.w3.org/2000/svg" xmlns:xlink="http://www.w3.org/1999/xlink" id="Logo" x="0px" y="0px" viewBox="0 0 380.9 89" style="enable-background:new 0 0 380.9 89;" xml:space="preserve"><style type="text/css">	.st0{fill:#4E4E4E;}	.st1{fill:#F9B719;}	.st2{fill:#8EB843;}	.st3{fill:#4DABCF;}	.st4{fill:#AA4C9C;}	.st5{fill:#B72341;}</style><g>	<path class="st0" d="M123.5,46.8c0,7-4.8,12.7-12.7,12.7c-7.9,0-12.6-5.7-12.6-12.7c0-6.9,4.8-12.7,12.6-12.7  S123.5,39.9,123.5,46.8z M104.3,46.8c0,3.7,2.2,7.1,6.6,7.1c4.4,0,6.6-3.4,6.6-7.1c0-3.6-2.6-7.2-6.6-7.2  C106.5,39.6,104.3,43.2,104.3,46.8z"></path>	<path class="st0" d="M134.1,24.5V59h-6V24.5H134.1z"></path>	<path class="st0" d="M146.5,27.8c0,4.7-7.1,4.7-7.1,0S146.5,23.2,146.5,27.8z M140,34.6V59h6V34.6H140z"></path>	<path class="st0" d="M157.9,24.5V38c1.4-2.5,5.4-3.9,8-3.9c7.1,0,12.4,4.3,12.4,12.7c0,8-5.4,12.7-12.5,12.7c-3,0-6-1-7.8-3.9  l-0.4,3.3h-5.6V24.5H157.9z M158.3,46.8c0,4.4,3.2,7.1,7,7.1c3.8,0,6.9-2.9,6.9-7.1c0-4.4-3.1-7.1-6.9-7.1  C161.6,39.7,158.3,42.6,158.3,46.8z"></path>	<path class="st0" d="M188.7,34.7l0.4,2.8c1.9-3,4.4-3.4,6.8-3.4c2.5,0,4.9,1,6.3,2.3l-2.7,5.2c-1.2-1-2.4-1.6-4.3-1.6  c-3.2,0-6.1,1.7-6.1,6.2V59h-6V34.7H188.7z"></path>	<path class="st0" d="M228.3,46.8c0,7-4.8,12.7-12.7,12.7c-7.9,0-12.6-5.7-12.6-12.7c0-6.9,4.8-12.7,12.6-12.7  S228.3,39.9,228.3,46.8z M209.1,46.8c0,3.7,2.2,7.1,6.6,7.1c4.4,0,6.6-3.4,6.6-7.1c0-3.6-2.6-7.2-6.6-7.2  C211.3,39.6,209.1,43.2,209.1,46.8z"></path>	<path class="st0" d="M256.7,24.5V59h-2.4v-5.4c-2,3.7-6,5.8-10.1,5.8c-6.8,0-12.2-4.5-12.2-12.6c0-8,5.4-12.6,12.2-12.6  c4.2,0,8.1,1.8,10.1,5.7V24.5H256.7z M234.4,46.8c0,6.7,4.5,10.2,9.9,10.2c5.7,0,9.9-4.2,9.9-10.2s-4.3-10.2-9.9-10.2  C238.9,36.5,234.4,39.9,234.4,46.8z"></path>	<path class="st0" d="M262.6,46.8c0-7.3,5.5-12.6,12.4-12.6c6.8,0,13,4.2,12,13.7h-21.9c0.5,5.7,4.9,9,9.9,9c3.2,0,6.9-1.3,8.8-3.7  l1.7,1.4c-2.4,3.1-6.6,4.7-10.5,4.7C268.2,59.3,262.6,54.5,262.6,46.8z M284.8,45.8c0-6-4-9.4-9.8-9.4c-5,0-9.4,3.4-9.9,9.4H284.8z  "></path>	<path class="st0" d="M309.5,39.1c-2.5-2.2-4.9-2.6-7.6-2.6c-3.8,0-7.4,1.4-7.3,4.5c0.1,3.2,4.3,3.9,7.4,4.4  c4.3,0.7,10.3,1.5,10,7.1c-0.1,5.4-5.7,6.8-10,6.8s-8.5-1.6-10.6-4.9l1.8-1.6c2,2.9,5.7,4.1,8.9,4.1c3,0,7.4-0.8,7.6-4.6  c0.1-3.5-3.9-4.2-7.9-4.8c-4.7-0.8-9.4-1.7-9.5-6.5c0-4.8,4.7-6.8,9.7-6.8c3.5,0,6.6,1,9.1,3.2L309.5,39.1z"></path>	<path class="st0" d="M320.6,26.7c0,2.6-3.9,2.6-3.9,0S320.6,24.1,320.6,26.7z M317.4,34.5V59h2.4V34.5H317.4z"></path>	<path class="st0" d="M346.3,33.6l1.6,1.4l-2.4,2.8c1.7,1.9,3,4.3,3,8.3c0,4.2-2.5,8.5-6.5,10.3c4.3,1.5,6.6,4.5,6.6,8.7  c0,6.5-5.1,9.7-11.6,9.7c-6.5,0-11.5-3.5-11.5-9.7h2.4c0,5,4.2,7.3,9.1,7.3c4.9,0,9.2-2.2,9.2-7.3c0-5.2-4.7-7.3-9.2-7.3  c-7,0-11.4-5.3-11.4-11.8c0-7.6,5.1-11.9,11.4-11.9c2.5,0,5,0.9,6.9,2.2L346.3,33.6z M328.1,46c0,5,3.4,9.4,9,9.4  c5,0,9.1-4.3,9.1-9.4c0-6.2-4.1-9.5-9.1-9.5C332.1,36.6,328.1,39.7,328.1,46z"></path>	<path class="st0" d="M356.7,34.6V39c1.9-3.3,5.3-4.7,8.7-4.8c6.5,0,11,4,11,10.7v14h-2.4V45c0-5.5-3.4-8.5-8.7-8.4  c-5,0-8.5,3.8-8.5,8.9V59h-2.4V34.6H356.7z"></path></g><g>	<g>		<path class="st1" d="M69.2,47.5c-6-8.2-18.6-5-18.6-5c0.4-8,5.7-13.9,11.2-16.2c0,0,6.7-4,20.1,6.2C71.3,37.7,69.2,47.5,69.2,47.5   "></path>		<path class="st2" d="M55.4,22.3c-9.7,3.2-10.4,16.1-10.4,16.1c-7.5-2.8-11.5-9.6-12-15.6c0,0-1.8-7.6,12.1-17.3   C46.7,17.3,55.4,22.3,55.4,22.3"></path>		<path class="st3" d="M27.3,27.5c0,10.2,12.2,14.9,12.2,14.9c-5,6.3-12.7,8-18.5,6.7c0,0-7.8-0.6-12.7-16.8   C19.9,34.2,27.3,27.6,27.3,27.5"></path>		<path class="st4" d="M23.6,55.9c9.7,3.1,17.9-7,17.9-7c4.4,6.7,3.7,14.5,0.6,19.7c0,0-3,7.2-19.9,6.9   C27.7,65.1,23.6,55.9,23.6,55.9"></path>		<path class="st5" d="M49.4,68.4C55.3,60,48.3,49,48.3,49c7.7-2.2,14.9,0.9,18.8,5.4c0,0,5.9,5.1,0.5,21.2   C59.3,67.3,49.5,68.4,49.4,68.4"></path>	</g>	<g>		<path class="st5" d="M84,57.2c-2.7,8.5-8.1,15.8-15.2,20.9C62,83.1,53.6,86,44.5,86c-0.1,0-0.2,0-0.2,0v3c0.1,0,0.2,0,0.2,0   c9.7,0,18.8-3.2,26.1-8.5c7.6-5.5,13.3-13.3,16.3-22.4L84,57.2z"></path>		<path class="st4" d="M19.8,77.9C12.9,72.7,7.6,65.4,4.9,57L2.1,58c2.9,9,8.5,16.8,16,22.3c7.3,5.4,16.4,8.7,26.2,8.7v-3   C35.1,85.9,26.7,82.9,19.8,77.9z"></path>		<path class="st1" d="M86.7,30.5c-3-9-8.8-16.7-16.4-22.1l-1.8,2.4c7.1,5,12.5,12.2,15.3,20.6c1.4,4.1,2.1,8.5,2.1,13.1   c0,4.4-0.7,8.7-2,12.7l2.9,0.9c1.4-4.3,2.1-8.9,2.1-13.6C89,39.6,88.2,34.9,86.7,30.5z"></path>		<path class="st3" d="M18.3,8.6C10.9,14,5.2,21.7,2.2,30.6C0.8,35,0,39.6,0,44.5c0,4.7,0.7,9.2,2.1,13.5L4.9,57   C3.7,53.1,3,48.9,3,44.5c0-4.5,0.7-8.9,2.1-13c2.7-8.3,8.1-15.5,15-20.5L18.3,8.6z"></path>		<path class="st2" d="M44.5,0c-0.1,0-0.2,0-0.2,0c-9.7,0.1-18.6,3.2-25.9,8.5l1.8,2.4c6.8-5,15.1-7.9,24.2-8c0.1,0,0.2,0,0.2,0   c9,0,17.3,2.9,24.1,7.7l1.8-2.4C63.1,3.1,54.1,0,44.5,0z"></path>	</g></g></svg>